<?xml version="1.0" encoding="UTF-8"?>
<svg width="754px" height="512px" viewBox="0 0 754 512" version="1.1" xmlns="http://www.w3.org/2000/svg" xmlns:xlink="http://www.w3.org/1999/xlink">
    <!-- Generator: Sketch 48.2 (47327) - http://www.bohemiancoding.com/sketch -->
    <title>logo_white</title>
    <desc>Created with Sketch.</desc>
    <defs>
        <linearGradient x1="7.62318468%" y1="92.3737776%" x2="92.3507071%" y2="7.77277239%" id="linearGradient-1">
            <stop stop-color="#FAD961" offset="0%"></stop>
            <stop stop-color="#F76B1C" offset="100%"></stop>
        </linearGradient>
    </defs>
    <g id="Symbols" stroke="none" stroke-width="1" fill="none" fill-rule="evenodd">
        <g id="logo_white">
            <path d="M0,0 L512,0 L512,512 L0,512 L0,0 Z M20,20 L20,492 L492,492 L492,20 L20,20 Z" id="Combined-Shape" fill="url(#linearGradient-1)"></path>
            <path d="M132.683973,180.412766 L72.2031603,73.5531915 L123.379233,73.5531915 L156.876298,136.302128 L164.32009,158.357447 L171.453725,136.302128 L206.50158,73.5531915 L252.715124,73.5531915 L190.063205,178.238298 L255.816704,291 L205.260948,291 L167.111512,223.902128 L158.737246,200.914894 L150.673138,223.902128 L112.213544,291 L66,291 L132.683973,180.412766 Z M375.537698,242.851064 L308.853725,242.851064 L292.41535,291 L249.923702,291 L328.083521,72 L359.409481,72 L437.5693,291 L392.906546,291 L375.537698,242.851064 Z M319.709255,208.680851 L366.232957,208.680851 L350.10474,160.221277 L343.591422,126.051064 L342.040632,126.051064 L335.527314,160.531915 L319.709255,208.680851 Z M586.134989,111.451064 L522.862754,111.451064 L522.862754,291 L480.371106,291 L480.371106,111.451064 L416.788713,111.451064 L416.788713,73.5531915 L586.134989,73.5531915 L586.134989,111.451064 Z M690.968397,242.851064 L624.284424,242.851064 L607.84605,291 L565.354402,291 L643.514221,72 L674.840181,72 L753,291 L708.337246,291 L690.968397,242.851064 Z M635.139955,208.680851 L681.663657,208.680851 L665.53544,160.221277 L659.022122,126.051064 L657.471332,126.051064 L650.958014,160.531915 L635.139955,208.680851 Z" id="XATA" fill="#FFFFFF"></path>
        </g>
    </g>
</svg>