<?xml version="1.0" encoding="UTF-8"?>
<svg width="163px" height="59px" viewBox="0 0 163 59" version="1.1" xmlns="http://www.w3.org/2000/svg" xmlns:xlink="http://www.w3.org/1999/xlink">
    <!-- Generator: Sketch 49 (51002) - http://www.bohemiancoding.com/sketch -->
    <title>cubits</title>
    <desc>Created with Sketch.</desc>
    <defs></defs>
    <g id="cubits" stroke="none" stroke-width="1" fill="none" fill-rule="evenodd">
        <g id="Group" transform="translate(10.000000, 10.000000)">
            <polyline id="Shape" fill="#F9CF5E" fill-rule="nonzero" points="1.708 19.38 11.733 36.7 31.783 36.7 24.263 23.708 19.251 23.708 16.746 19.378"></polyline>
            <polyline id="Shape" fill="#F9CF5E" fill-rule="nonzero" points="16.745 19.38 1.708 19.38 11.733 2.056 31.783 2.056 24.263 15.046 19.251 15.046 16.746 19.378"></polyline>
            <path d="M31.782,37.414 C31.535,37.414 31.294,37.284 31.162,37.057 L23.85,24.423 L19.25,24.423 C18.996,24.423 18.76,24.287 18.632,24.066 L16.332,20.093 L1.707,20.093 C1.312,20.093 0.991,19.773 0.991,19.379 C0.991,18.983 1.311,18.663 1.707,18.663 L16.33,18.663 L18.632,14.69 C18.759,14.47 18.996,14.334 19.252,14.334 L23.85,14.334 L31.16,1.7 C31.36,1.358 31.798,1.24 32.14,1.44 C32.482,1.636 32.6,2.072 32.4,2.414 L24.884,15.404 C24.756,15.626 24.52,15.762 24.264,15.762 L19.664,15.762 L17.572,19.379 L19.665,22.993 L24.265,22.993 C24.52,22.993 24.755,23.129 24.885,23.35 L32.4,36.343 C32.6,36.685 32.482,37.121 32.14,37.319 C32.026,37.384 31.904,37.415 31.782,37.415" id="Shape" fill="#2D2D2D" fill-rule="nonzero"></path>
            <path d="M19.25,15.048 L21.758,19.378" id="Shape" stroke="#FFFFFF" stroke-width="2" stroke-linejoin="round"></path>
            <path d="M11.732,37.652 C11.572,37.652 11.407,37.612 11.256,37.524 C10.949,37.347 10.779,37.027 10.779,36.698 C10.779,36.538 10.819,36.373 10.905,36.223 L20.655,19.379 L10.905,2.532 L12.559,1.58 L22.307,18.426 L41.805,18.426 L41.805,20.331 L22.308,20.331 L12.56,37.177 C12.383,37.482 12.063,37.653 11.732,37.653" id="Shape" fill="#2D2D2D" fill-rule="nonzero"></path>
            <path d="M31.782,38.128 L11.732,38.128 C11.222,38.128 10.749,37.856 10.492,37.414 L0.47,20.094 C0.214,19.651 0.214,19.104 0.47,18.664 L10.495,1.344 C10.751,0.901 11.225,0.629 11.735,0.629 L31.755,0.629 C32.278,0.637 32.755,0.875 33.023,1.342 L43.049,18.662 C43.305,19.104 43.305,19.65 43.049,20.092 L33.02,37.413 C32.766,37.856 32.293,38.128 31.782,38.128 Z M12.56,35.27 L30.954,35.27 L40.154,19.38 L30.954,3.486 L12.56,3.486 L3.36,19.38 L12.56,35.27 Z" id="Shape" fill="#2D2D2D" fill-rule="nonzero"></path>
            <path d="M62.428,25.884 C61.548,26.284 60.538,26.484 59.392,26.484 C58.348,26.484 57.382,26.312 56.499,25.97 C55.613,25.627 54.846,25.14 54.197,24.512 C53.547,23.884 53.039,23.132 52.67,22.255 C52.3,21.379 52.117,20.415 52.117,19.36 C52.117,18.28 52.305,17.303 52.68,16.426 C53.055,15.55 53.575,14.804 54.236,14.188 C54.898,13.572 55.674,13.098 56.566,12.768 C57.456,12.438 58.418,12.274 59.449,12.274 C60.403,12.274 61.341,12.442 62.264,12.779 C63.188,13.114 63.934,13.606 64.508,14.254 L62.292,16.464 C61.987,16.044 61.586,15.734 61.089,15.53 C60.594,15.328 60.085,15.226 59.563,15.226 C58.99,15.226 58.465,15.331 57.987,15.541 C57.51,15.751 57.099,16.041 56.757,16.408 C56.412,16.778 56.145,17.211 55.954,17.713 C55.764,18.215 55.667,18.763 55.667,19.361 C55.667,19.971 55.763,20.529 55.954,21.037 C56.144,21.545 56.408,21.98 56.746,22.342 C57.083,22.705 57.488,22.988 57.959,23.19 C58.429,23.393 58.945,23.495 59.505,23.495 C60.155,23.495 60.721,23.369 61.205,23.115 C61.689,22.86 62.075,22.53 62.369,22.125 L64.642,24.257 C64.042,24.942 63.305,25.487 62.427,25.887" id="Shape" fill="#2D2D2D" fill-rule="nonzero"></path>
            <path d="M81.856,23.255 C81.582,23.922 81.19,24.493 80.682,24.969 C80.172,25.445 79.558,25.816 78.839,26.083 C78.119,26.349 77.319,26.483 76.442,26.483 C75.552,26.483 74.748,26.349 74.036,26.083 C73.323,25.816 72.718,25.445 72.222,24.968 C71.725,24.491 71.344,23.92 71.076,23.253 C70.809,22.586 70.676,21.846 70.676,21.033 L70.676,12.633 L73.921,12.633 L73.921,20.767 C73.921,21.135 73.969,21.483 74.064,21.814 C74.16,22.144 74.306,22.44 74.504,22.7 C74.701,22.96 74.962,23.166 75.286,23.32 C75.611,23.47 76.003,23.547 76.461,23.547 C76.919,23.547 77.311,23.471 77.635,23.319 C77.96,23.166 78.225,22.959 78.427,22.699 C78.631,22.439 78.777,22.144 78.867,21.814 C78.955,21.484 79,21.134 79,20.766 L79,12.632 L82.266,12.632 L82.266,21.032 C82.266,21.844 82.129,22.584 81.856,23.252" id="Shape" fill="#2D2D2D" fill-rule="nonzero"></path>
            <path d="M100.215,22.198 C100.215,22.934 100.068,23.553 99.775,24.055 C99.482,24.557 99.095,24.959 98.611,25.265 C98.128,25.569 97.577,25.789 96.961,25.922 C96.341,26.055 95.709,26.122 95.061,26.122 L89.676,26.122 L89.676,12.636 L95.06,12.636 C95.58,12.636 96.115,12.69 96.663,12.796 C97.21,12.906 97.707,13.09 98.153,13.35 C98.597,13.61 98.96,13.962 99.241,14.407 C99.521,14.852 99.661,15.417 99.661,16.102 C99.661,16.852 99.458,17.472 99.051,17.96 C98.643,18.448 98.109,18.8 97.447,19.017 L97.447,19.055 C97.829,19.119 98.187,19.235 98.527,19.407 C98.863,19.579 99.157,19.797 99.404,20.065 C99.652,20.331 99.849,20.643 99.996,20.998 C100.142,21.353 100.216,21.753 100.216,22.198 L100.215,22.198 Z M96.51,16.54 C96.51,16.083 96.335,15.75 95.985,15.54 C95.635,15.33 95.117,15.226 94.429,15.226 L92.824,15.226 L92.824,18.006 L94.581,18.006 C95.191,18.006 95.665,17.883 96.003,17.636 C96.34,17.388 96.509,17.023 96.509,16.541 L96.51,16.54 Z M96.95,21.893 C96.95,21.333 96.74,20.947 96.32,20.731 C95.9,20.516 95.34,20.408 94.64,20.408 L92.825,20.408 L92.825,23.494 L94.658,23.494 C94.913,23.494 95.178,23.472 95.451,23.428 C95.725,23.383 95.973,23.304 96.196,23.188 C96.419,23.075 96.6,22.913 96.741,22.704 C96.881,22.494 96.951,22.224 96.951,21.894 L96.95,21.893 Z" id="Shape" fill="#2D2D2D" fill-rule="nonzero"></path>
            <polygon id="Shape" fill="#2D2D2D" fill-rule="nonzero" points="107.145 12.636 110.429 12.636 110.429 26.122 107.144 26.122 107.144 12.636"></polygon>
            <polyline id="Shape" fill="#2D2D2D" fill-rule="nonzero" points="123.318 15.416 123.318 26.122 120.053 26.122 120.053 15.416 116.233 15.416 116.233 12.636 127.137 12.636 127.137 15.416 123.317 15.416"></polyline>
            <path d="M140.083,16.14 C139.803,15.785 139.437,15.502 138.985,15.293 C138.532,15.083 138.097,14.979 137.677,14.979 C137.46,14.979 137.241,14.997 137.017,15.035 C136.797,15.073 136.595,15.145 136.417,15.255 C136.237,15.361 136.087,15.501 135.967,15.672 C135.847,15.844 135.787,16.062 135.787,16.33 C135.787,16.56 135.834,16.75 135.93,16.903 C136.025,17.055 136.165,17.188 136.35,17.303 C136.534,17.417 136.754,17.523 137.01,17.617 C137.263,17.712 137.55,17.81 137.868,17.912 C138.326,18.064 138.804,18.232 139.3,18.417 C139.796,18.601 140.248,18.845 140.656,19.15 C141.063,19.455 141.4,19.833 141.668,20.284 C141.935,20.734 142.068,21.296 142.068,21.969 C142.068,22.743 141.925,23.412 141.638,23.979 C141.353,24.543 140.968,25.009 140.484,25.379 C140,25.747 139.446,26.019 138.824,26.197 C138.199,26.374 137.556,26.464 136.894,26.464 C135.926,26.464 134.991,26.294 134.087,25.959 C133.183,25.623 132.433,25.143 131.834,24.521 L133.974,22.349 C134.304,22.756 134.739,23.095 135.281,23.369 C135.823,23.642 136.361,23.779 136.895,23.779 C137.137,23.779 137.372,23.752 137.602,23.702 C137.832,23.652 138.032,23.568 138.204,23.454 C138.376,23.34 138.512,23.187 138.614,22.997 C138.716,22.807 138.767,22.577 138.767,22.311 C138.767,22.057 138.703,21.841 138.577,21.664 C138.449,21.484 138.267,21.324 138.032,21.178 C137.796,21.03 137.502,20.898 137.154,20.778 C136.804,20.656 136.404,20.526 135.961,20.386 C135.527,20.246 135.103,20.082 134.691,19.891 C134.276,19.701 133.907,19.456 133.581,19.158 C133.258,18.86 132.997,18.498 132.799,18.072 C132.602,17.646 132.504,17.129 132.504,16.52 C132.504,15.77 132.656,15.13 132.962,14.596 C133.268,14.062 133.669,13.624 134.166,13.281 C134.662,12.938 135.223,12.688 135.846,12.529 C136.469,12.371 137.099,12.292 137.736,12.292 C138.5,12.292 139.28,12.432 140.076,12.712 C140.871,12.99 141.566,13.402 142.166,13.949 L140.086,16.139" id="Shape" fill="#2D2D2D" fill-rule="nonzero"></path>
        </g>
    </g>
</svg>